<svg width="18" height="13" viewBox="0 0 18 13" fill="none" xmlns="http://www.w3.org/2000/svg">
<mask id="path-1-inside-1_0_98" fill="white">
<path d="M16.5545 0.272561C16.8831 -0.0898407 17.4523 -0.0910159 17.7824 0.270025C18.0716 0.586229 18.0727 1.07051 17.7849 1.38801L8.84335 11.2552C7.22831 13.0374 4.42828 13.038 2.81258 11.2563L0.216125 8.39323C-0.0720505 8.07546 -0.0720496 7.59088 0.216125 7.27311C0.547007 6.90825 1.12039 6.90825 1.45127 7.27311L3.33114 9.34603C4.66921 10.8215 6.98795 10.8215 8.32602 9.34603L16.5545 0.272561Z"/>
</mask>
<path d="M16.5545 0.272561C16.8831 -0.0898407 17.4523 -0.0910159 17.7824 0.270025C18.0716 0.586229 18.0727 1.07051 17.7849 1.38801L8.84335 11.2552C7.22831 13.0374 4.42828 13.038 2.81258 11.2563L0.216125 8.39323C-0.0720505 8.07546 -0.0720496 7.59088 0.216125 7.27311C0.547007 6.90825 1.12039 6.90825 1.45127 7.27311L3.33114 9.34603C4.66921 10.8215 6.98795 10.8215 8.32602 9.34603L16.5545 0.272561Z" fill="white"/>
<path d="M1.45127 7.27311L-0.809887 9.32369L1.45127 7.27311ZM0.216125 8.39323L-2.04504 10.4438L0.216125 8.39323ZM0.216125 7.27311L-2.04504 5.22253L0.216125 7.27311ZM2.81258 11.2563L0.551414 13.3069L2.81258 11.2563ZM17.7849 1.38801L20.0469 3.43775L17.7849 1.38801ZM16.5545 0.272561L14.2933 -1.77802L16.5545 0.272561ZM15.523 -0.661727L6.58143 9.20546L11.1053 13.3049L20.0469 3.43775L15.523 -0.661727ZM5.07374 9.20574L2.47729 6.34265L-2.04504 10.4438L0.551414 13.3069L5.07374 9.20574ZM-0.809887 9.32369L1.06998 11.3966L5.5923 7.29545L3.71244 5.22253L-0.809887 9.32369ZM10.5872 11.3966L18.8156 2.32314L14.2933 -1.77802L6.06486 7.29545L10.5872 11.3966ZM1.06998 11.3966C3.61952 14.208 8.03763 14.208 10.5872 11.3966L6.06486 7.29545C5.93827 7.43504 5.7189 7.43504 5.5923 7.29545L1.06998 11.3966ZM2.47729 9.32369C1.59669 10.2947 0.0707087 10.2947 -0.809887 9.32369L3.71244 5.22253C2.17008 3.52178 -0.502679 3.52178 -2.04504 5.22253L2.47729 9.32369ZM2.47729 6.34265C3.24423 7.18835 3.24422 8.478 2.47729 9.32369L-2.04504 5.22253C-3.38832 6.70376 -3.38833 8.96257 -2.04504 10.4438L2.47729 6.34265ZM6.58143 9.20546C6.17767 9.65102 5.47767 9.65115 5.07374 9.20574L0.551414 13.3069C3.3789 16.4248 8.27894 16.4238 11.1053 13.3049L6.58143 9.20546ZM15.5298 2.32993C14.756 1.48379 14.7531 0.187887 15.523 -0.661727L20.0469 3.43775C21.3922 1.95313 21.3871 -0.311334 20.0351 -1.78988L15.5298 2.32993ZM20.0351 -1.78988C18.4914 -3.47808 15.8301 -3.47259 14.2933 -1.77802L18.8156 2.32314C17.9362 3.29291 16.4132 3.29605 15.5298 2.32993L20.0351 -1.78988Z" fill="white" mask="url(#path-1-inside-1_0_98)"/>
</svg>
