<svg width="26" height="26" viewBox="0 0 26 26" fill="none" xmlns="http://www.w3.org/2000/svg">
<path d="M23.135 5.34422L13.385 2.09422C13.1353 2.00993 12.8649 2.00993 12.6152 2.09422L2.86518 5.34422C2.63253 5.42127 2.42852 5.56667 2.27977 5.76144C2.13103 5.95621 2.04445 6.1913 2.03135 6.43602C2.03024 6.45733 2.03024 6.47869 2.03135 6.5V14.625C2.03135 14.9482 2.15975 15.2582 2.38831 15.4868C2.61687 15.7153 2.92687 15.8438 3.2501 15.8438C3.57333 15.8438 3.88333 15.7153 4.11189 15.4868C4.34045 15.2582 4.46885 14.9482 4.46885 14.625V8.19102L6.8769 8.99336C6.12956 10.4239 5.90747 12.0711 6.24929 13.6485C6.59111 15.2258 7.4752 16.6334 8.74768 17.6262C7.08249 18.4473 5.67321 19.7077 4.67198 21.2713C4.58181 21.4053 4.51918 21.5559 4.48773 21.7143C4.45628 21.8727 4.45663 22.0358 4.48877 22.1941C4.5209 22.3524 4.58418 22.5027 4.67492 22.6363C4.76566 22.7699 4.88206 22.8842 5.01734 22.9724C5.15263 23.0606 5.3041 23.1211 5.46296 23.1503C5.62182 23.1795 5.78489 23.1768 5.9427 23.1424C6.10051 23.108 6.24991 23.0426 6.38222 22.9499C6.51452 22.8573 6.62709 22.7393 6.71338 22.6027C8.16268 20.3724 10.461 19.0938 13.0001 19.0938C15.5392 19.0938 17.8375 20.3724 19.2919 22.6027C19.3782 22.7393 19.4908 22.8573 19.6231 22.9499C19.7554 23.0426 19.9048 23.108 20.0626 23.1424C20.2204 23.1768 20.3835 23.1795 20.5423 23.1503C20.7012 23.1211 20.8527 23.0606 20.9879 22.9724C21.1232 22.8842 21.2396 22.7699 21.3304 22.6363C21.4211 22.5027 21.4844 22.3524 21.5165 22.1941C21.5486 22.0358 21.549 21.8727 21.5175 21.7143C21.4861 21.5559 21.4235 21.4053 21.3333 21.2713C20.3311 19.7059 18.92 18.4443 17.2525 17.6231C18.525 16.6303 19.4091 15.2228 19.7509 13.6454C20.0927 12.0681 19.8706 10.4208 19.1233 8.99031L23.135 7.65274C23.3774 7.57165 23.5881 7.41643 23.7374 7.20902C23.8868 7.00162 23.9671 6.75252 23.9671 6.49696C23.9671 6.24139 23.8868 5.99229 23.7374 5.78489C23.5881 5.57748 23.3774 5.42226 23.135 5.34117V5.34422ZM13.0001 4.53172L18.8958 6.5L13.0001 8.46524L7.10948 6.5L13.0001 4.53172ZM17.4689 12.1875C17.469 12.8816 17.3074 13.5662 16.997 14.187C16.6865 14.8078 16.2357 15.3478 15.6803 15.7641C15.1249 16.1804 14.4802 16.4616 13.7972 16.5854C13.1142 16.7092 12.4118 16.6722 11.7456 16.4774C11.0794 16.2825 10.4677 15.9351 9.95911 15.4628C9.4505 14.9905 9.05892 14.4061 8.8154 13.7561C8.57188 13.1061 8.48312 12.4084 8.55616 11.7181C8.6292 11.0278 8.86203 10.3641 9.2362 9.77946L12.6152 10.9058C12.8649 10.9898 13.1353 10.9898 13.385 10.9058L16.764 9.77946C17.2249 10.498 17.4695 11.3339 17.4689 12.1875Z" fill="#012970"/>
</svg>
