<svg width="183" height="24" viewBox="0 0 183 24" fill="none" xmlns="http://www.w3.org/2000/svg">
<path d="M11 4H4C3.46957 4 2.96086 4.21071 2.58579 4.58579C2.21071 4.96086 2 5.46957 2 6V20C2 20.5304 2.21071 21.0391 2.58579 21.4142C2.96086 21.7893 3.46957 22 4 22H18C18.5304 22 19.0391 21.7893 19.4142 21.4142C19.7893 21.0391 20 20.5304 20 20V13" stroke="#7D7D7D" stroke-width="2" stroke-linecap="round" stroke-linejoin="round"/>
<path d="M18.5 2.49998C18.8978 2.10216 19.4374 1.87866 20 1.87866C20.5626 1.87866 21.1022 2.10216 21.5 2.49998C21.8978 2.89781 22.1213 3.43737 22.1213 3.99998C22.1213 4.56259 21.8978 5.10216 21.5 5.49998L12 15L8 16L9 12L18.5 2.49998Z" stroke="#7D7D7D" stroke-width="2" stroke-linecap="round" stroke-linejoin="round"/>
<path d="M43 6H45H61" stroke="#FF4861" stroke-width="2" stroke-linecap="round" stroke-linejoin="round"/>
<path d="M59 6V20C59 20.5304 58.7893 21.0391 58.4142 21.4142C58.0391 21.7893 57.5304 22 57 22H47C46.4696 22 45.9609 21.7893 45.5858 21.4142C45.2107 21.0391 45 20.5304 45 20V6M48 6V4C48 3.46957 48.2107 2.96086 48.5858 2.58579C48.9609 2.21071 49.4696 2 50 2H54C54.5304 2 55.0391 2.21071 55.4142 2.58579C55.7893 2.96086 56 3.46957 56 4V6" stroke="#FF4861" stroke-width="2" stroke-linecap="round" stroke-linejoin="round"/>
<path d="M50 11V17" stroke="#FF4861" stroke-width="2" stroke-linecap="round" stroke-linejoin="round"/>
<path d="M54 11V17" stroke="#FF4861" stroke-width="2" stroke-linecap="round" stroke-linejoin="round"/>
</svg>
