<svg width="28" height="22" viewBox="0 0 28 22" fill="none" xmlns="http://www.w3.org/2000/svg">
<path d="M9.10007 15.125C8.99551 15.125 8.89095 15.14 8.7912 15.1718C8.2242 15.3527 7.62788 15.4688 7.00007 15.4688C6.37226 15.4688 5.77595 15.3527 5.20851 15.1718C5.10876 15.14 5.00463 15.125 4.90007 15.125C2.18495 15.125 -0.0143668 17.2941 7.06772e-05 19.9641C0.00619568 21.0925 0.950758 22 2.10007 22H11.9001C13.0494 22 13.9939 21.0925 14.0001 19.9641C14.0145 17.2941 11.8152 15.125 9.10007 15.125ZM7.00007 13.75C9.3197 13.75 11.2001 11.9032 11.2001 9.625C11.2001 7.3468 9.3197 5.5 7.00007 5.5C4.68045 5.5 2.80007 7.3468 2.80007 9.625C2.80007 11.9032 4.68045 13.75 7.00007 13.75ZM25.9001 0H9.10007C7.94201 0 7.00007 0.956055 7.00007 2.13082V4.125C8.0247 4.125 8.9732 4.41633 9.80007 4.88984V2.75H25.2001V15.125H22.4001V12.375H16.8001V15.125H13.4646C14.3002 15.8421 14.9136 16.7892 15.201 17.875H25.9001C27.0581 17.875 28.0001 16.9189 28.0001 15.7442V2.13082C28.0001 0.956055 27.0581 0 25.9001 0Z" fill="#012970"/>
</svg>
