<svg width="28" height="36" viewBox="0 0 28 36" fill="none" xmlns="http://www.w3.org/2000/svg">
<path d="M18 14.75C18 13.1587 17.3679 11.6326 16.2426 10.5074C15.1174 9.38214 13.5913 8.75 12 8.75C10.4087 8.75 8.88258 9.38214 7.75736 10.5074C6.63214 11.6326 6 13.1587 6 14.75C6 21.75 3 23.75 3 23.75H21C21 23.75 18 21.75 18 14.75Z" stroke="black" stroke-width="2" stroke-linecap="round" stroke-linejoin="round"/>
<path d="M13.73 27.75C13.5542 28.0531 13.3019 28.3047 12.9982 28.4795C12.6946 28.6544 12.3504 28.7465 12 28.7465C11.6496 28.7465 11.3054 28.6544 11.0018 28.4795C10.6982 28.3047 10.4458 28.0531 10.27 27.75" stroke="black" stroke-width="2" stroke-linecap="round" stroke-linejoin="round"/>
<rect width="18.875" height="18" rx="6" transform="matrix(-1 0 0 1 28 0)" fill="#0D6EFD"/>
</svg>
