<svg width="675" height="227" viewBox="0 0 675 227" fill="none" xmlns="http://www.w3.org/2000/svg">
<mask id="mask0_344_1134" style="mask-type:luminance" maskUnits="userSpaceOnUse" x="2" y="-45" width="671" height="273">
<path d="M672.999 -44.6598H2.00107V227.685H672.999V-44.6598Z" fill="white"/>
</mask>
<g mask="url(#mask0_344_1134)">
<path d="M5.00266 226.685V142.878C58.7138 142.878 104.752 118.547 158.463 118.547C194.27 118.547 224.962 150.988 260.77 150.988C296.577 150.988 327.269 88.8093 363.077 88.8093C398.884 88.8093 429.576 113.14 465.384 113.14C501.191 113.14 531.883 5.00266 567.69 5.00266C603.498 5.00266 634.19 75.2921 669.997 75.2921C669.997 75.2921 669.997 75.2921 669.997 226.685" fill="url(#paint0_linear_344_1134)"/>
</g>
<mask id="mask1_344_1134" style="mask-type:luminance" maskUnits="userSpaceOnUse" x="2" y="-45" width="671" height="273">
<path d="M672.999 -44.6598H2.00107V227.685H672.999V-44.6598Z" fill="white"/>
</mask>
<g mask="url(#mask1_344_1134)">
<path d="M5.00266 142.878C58.7138 142.878 104.752 118.547 158.463 118.547C194.27 118.547 224.962 150.988 260.77 150.988C296.577 150.988 327.269 88.8093 363.077 88.8093C398.884 88.8093 429.576 113.14 465.384 113.14C501.191 113.14 531.883 5.00266 567.69 5.00266C603.498 5.00266 634.19 75.2921 669.997 75.2921" stroke="#4154F1" stroke-width="2"/>
</g>
<mask id="mask2_344_1134" style="mask-type:luminance" maskUnits="userSpaceOnUse" x="-20" y="-68" width="715" height="319">
<path d="M694.01 -67.672H-19.0101V250.697H694.01V-67.672Z" fill="white"/>
</mask>
<g mask="url(#mask2_344_1134)">
<path d="M5.00266 146.88C7.21298 146.88 9.00479 145.088 9.00479 142.878C9.00479 140.668 7.21298 138.876 5.00266 138.876C2.79235 138.876 1.00053 140.668 1.00053 142.878C1.00053 145.088 2.79235 146.88 5.00266 146.88Z" fill="#4154F1" stroke="white" stroke-opacity="0.9" stroke-width="2"/>
<path d="M158.463 122.549C160.673 122.549 162.465 120.757 162.465 118.547C162.465 116.337 160.673 114.545 158.463 114.545C156.253 114.545 154.461 116.337 154.461 118.547C154.461 120.757 156.253 122.549 158.463 122.549Z" fill="#4154F1" stroke="white" stroke-opacity="0.9" stroke-width="2"/>
</g>
<mask id="mask3_344_1134" style="mask-type:luminance" maskUnits="userSpaceOnUse" x="-20" y="-68" width="715" height="319">
<path d="M694.01 -67.672H-19.0101V250.697H694.01V-67.672Z" fill="white"/>
</mask>
<g mask="url(#mask3_344_1134)">
<path d="M260.77 154.99C262.98 154.99 264.772 153.199 264.772 150.988C264.772 148.778 262.98 146.986 260.77 146.986C258.56 146.986 256.768 148.778 256.768 150.988C256.768 153.199 258.56 154.99 260.77 154.99Z" fill="#4154F1" stroke="white" stroke-opacity="0.9" stroke-width="2"/>
</g>
<mask id="mask4_344_1134" style="mask-type:luminance" maskUnits="userSpaceOnUse" x="-20" y="-68" width="715" height="319">
<path d="M694.01 -67.672H-19.0101V250.697H694.01V-67.672Z" fill="white"/>
</mask>
<g mask="url(#mask4_344_1134)">
<path d="M363.077 92.8114C365.287 92.8114 367.079 91.0196 367.079 88.8092C367.079 86.5989 365.287 84.8071 363.077 84.8071C360.866 84.8071 359.075 86.5989 359.075 88.8092C359.075 91.0196 360.866 92.8114 363.077 92.8114Z" fill="#4154F1" stroke="white" stroke-opacity="0.9" stroke-width="2"/>
</g>
<mask id="mask5_344_1134" style="mask-type:luminance" maskUnits="userSpaceOnUse" x="-20" y="-68" width="715" height="319">
<path d="M694.01 -67.672H-19.0101V250.697H694.01V-67.672Z" fill="white"/>
</mask>
<g mask="url(#mask5_344_1134)">
<path d="M465.384 117.142C467.594 117.142 469.386 115.351 469.386 113.14C469.386 110.93 467.594 109.138 465.384 109.138C463.173 109.138 461.381 110.93 461.381 113.14C461.381 115.351 463.173 117.142 465.384 117.142Z" fill="#4154F1" stroke="white" stroke-opacity="0.9" stroke-width="2"/>
</g>
<mask id="mask6_344_1134" style="mask-type:luminance" maskUnits="userSpaceOnUse" x="-20" y="-68" width="715" height="319">
<path d="M694.01 -67.672H-19.0101V250.697H694.01V-67.672Z" fill="white"/>
</mask>
<g mask="url(#mask6_344_1134)">
<path d="M567.691 9.00479C569.901 9.00479 571.693 7.21298 571.693 5.00266C571.693 2.79235 569.901 1.00053 567.691 1.00053C565.48 1.00053 563.688 2.79235 563.688 5.00266C563.688 7.21298 565.48 9.00479 567.691 9.00479Z" fill="#4154F1" stroke="white" stroke-opacity="0.9" stroke-width="2"/>
</g>
<mask id="mask7_344_1134" style="mask-type:luminance" maskUnits="userSpaceOnUse" x="-20" y="-68" width="715" height="319">
<path d="M694.01 -67.672H-19.0101V250.697H694.01V-67.672Z" fill="white"/>
</mask>
<g mask="url(#mask7_344_1134)">
<path d="M669.997 79.2942C672.208 79.2942 673.999 77.5024 673.999 75.292C673.999 73.0817 672.208 71.2899 669.997 71.2899C667.787 71.2899 665.995 73.0817 665.995 75.292C665.995 77.5024 667.787 79.2942 669.997 79.2942Z" fill="#4154F1" stroke="white" stroke-opacity="0.9" stroke-width="2"/>
</g>
<mask id="mask8_344_1134" style="mask-type:luminance" maskUnits="userSpaceOnUse" x="2" y="-45" width="671" height="273">
<path d="M672.999 -44.6598H2.00107V227.685H672.999V-44.6598Z" fill="white"/>
</mask>
<g mask="url(#mask8_344_1134)">
<path d="M5.00266 226.685V196.947C58.7138 196.947 104.752 140.175 158.463 140.175C194.27 140.175 224.962 105.03 260.77 105.03C296.577 105.03 327.269 140.175 363.077 140.175C398.884 140.175 429.576 134.768 465.384 134.768C501.191 134.768 531.883 86.1059 567.69 86.1059C603.498 86.1059 634.19 115.844 669.997 115.844C669.997 115.844 669.997 115.844 669.997 226.685" fill="url(#paint1_linear_344_1134)"/>
</g>
<mask id="mask9_344_1134" style="mask-type:luminance" maskUnits="userSpaceOnUse" x="2" y="-45" width="671" height="273">
<path d="M672.999 -44.6598H2.00107V227.685H672.999V-44.6598Z" fill="white"/>
</mask>
<g mask="url(#mask9_344_1134)">
<path d="M5.00266 196.947C58.7138 196.947 104.752 140.175 158.463 140.175C194.27 140.175 224.962 105.03 260.77 105.03C296.577 105.03 327.269 140.175 363.077 140.175C398.884 140.175 429.576 134.768 465.384 134.768C501.191 134.768 531.883 86.1059 567.69 86.1059C603.498 86.1059 634.19 115.844 669.997 115.844" stroke="#2ECA6A" stroke-width="2"/>
</g>
<mask id="mask10_344_1134" style="mask-type:luminance" maskUnits="userSpaceOnUse" x="-20" y="-68" width="715" height="319">
<path d="M694.01 -67.672H-19.0101V250.697H694.01V-67.672Z" fill="white"/>
</mask>
<g mask="url(#mask10_344_1134)">
<path d="M5.00266 200.949C7.21298 200.949 9.00479 199.157 9.00479 196.947C9.00479 194.737 7.21298 192.945 5.00266 192.945C2.79235 192.945 1.00053 194.737 1.00053 196.947C1.00053 199.157 2.79235 200.949 5.00266 200.949Z" fill="#2ECA6A" stroke="white" stroke-opacity="0.9" stroke-width="2"/>
<path d="M158.463 144.177C160.673 144.177 162.465 142.385 162.465 140.175C162.465 137.964 160.673 136.172 158.463 136.172C156.253 136.172 154.461 137.964 154.461 140.175C154.461 142.385 156.253 144.177 158.463 144.177Z" fill="#2ECA6A" stroke="white" stroke-opacity="0.9" stroke-width="2"/>
</g>
<mask id="mask11_344_1134" style="mask-type:luminance" maskUnits="userSpaceOnUse" x="-20" y="-68" width="715" height="319">
<path d="M694.01 -67.672H-19.0101V250.697H694.01V-67.672Z" fill="white"/>
</mask>
<g mask="url(#mask11_344_1134)">
<path d="M260.77 109.032C262.98 109.032 264.772 107.24 264.772 105.03C264.772 102.82 262.98 101.028 260.77 101.028C258.56 101.028 256.768 102.82 256.768 105.03C256.768 107.24 258.56 109.032 260.77 109.032Z" fill="#2ECA6A" stroke="white" stroke-opacity="0.9" stroke-width="2"/>
</g>
<mask id="mask12_344_1134" style="mask-type:luminance" maskUnits="userSpaceOnUse" x="-20" y="-68" width="715" height="319">
<path d="M694.01 -67.672H-19.0101V250.697H694.01V-67.672Z" fill="white"/>
</mask>
<g mask="url(#mask12_344_1134)">
<path d="M363.077 144.177C365.287 144.177 367.079 142.385 367.079 140.175C367.079 137.964 365.287 136.172 363.077 136.172C360.866 136.172 359.075 137.964 359.075 140.175C359.075 142.385 360.866 144.177 363.077 144.177Z" fill="#2ECA6A" stroke="white" stroke-opacity="0.9" stroke-width="2"/>
</g>
<mask id="mask13_344_1134" style="mask-type:luminance" maskUnits="userSpaceOnUse" x="-20" y="-68" width="715" height="319">
<path d="M694.01 -67.672H-19.0101V250.697H694.01V-67.672Z" fill="white"/>
</mask>
<g mask="url(#mask13_344_1134)">
<path d="M465.384 138.77C467.594 138.77 469.386 136.978 469.386 134.768C469.386 132.557 467.594 130.766 465.384 130.766C463.173 130.766 461.381 132.557 461.381 134.768C461.381 136.978 463.173 138.77 465.384 138.77Z" fill="#2ECA6A" stroke="white" stroke-opacity="0.9" stroke-width="2"/>
</g>
<mask id="mask14_344_1134" style="mask-type:luminance" maskUnits="userSpaceOnUse" x="-20" y="-68" width="715" height="319">
<path d="M694.01 -67.672H-19.0101V250.697H694.01V-67.672Z" fill="white"/>
</mask>
<g mask="url(#mask14_344_1134)">
<path d="M567.691 90.108C569.901 90.108 571.693 88.3162 571.693 86.1059C571.693 83.8956 569.901 82.1038 567.691 82.1038C565.48 82.1038 563.688 83.8956 563.688 86.1059C563.688 88.3162 565.48 90.108 567.691 90.108Z" fill="#2ECA6A" stroke="white" stroke-opacity="0.9" stroke-width="2"/>
</g>
<mask id="mask15_344_1134" style="mask-type:luminance" maskUnits="userSpaceOnUse" x="-20" y="-68" width="715" height="319">
<path d="M694.01 -67.672H-19.0101V250.697H694.01V-67.672Z" fill="white"/>
</mask>
<g mask="url(#mask15_344_1134)">
<path d="M669.997 119.846C672.208 119.846 673.999 118.054 673.999 115.844C673.999 113.633 672.208 111.842 669.997 111.842C667.787 111.842 665.995 113.633 665.995 115.844C665.995 118.054 667.787 119.846 669.997 119.846Z" fill="#2ECA6A" stroke="white" stroke-opacity="0.9" stroke-width="2"/>
</g>
<mask id="mask16_344_1134" style="mask-type:luminance" maskUnits="userSpaceOnUse" x="2" y="-45" width="671" height="273">
<path d="M672.999 -44.6598H2.00107V227.685H672.999V-44.6598Z" fill="white"/>
</mask>
<g mask="url(#mask16_344_1134)">
<path d="M5.00266 226.685V186.133C58.7138 186.133 104.752 196.947 158.463 196.947C194.27 196.947 224.962 140.175 260.77 140.175C296.577 140.175 327.269 178.023 363.077 178.023C398.884 178.023 429.576 202.354 465.384 202.354C501.191 202.354 531.883 161.802 567.69 161.802C603.498 161.802 634.19 196.947 669.997 196.947C669.997 196.947 669.997 196.947 669.997 226.685" fill="url(#paint2_linear_344_1134)"/>
</g>
<mask id="mask17_344_1134" style="mask-type:luminance" maskUnits="userSpaceOnUse" x="2" y="-45" width="671" height="273">
<path d="M672.999 -44.6598H2.00107V227.685H672.999V-44.6598Z" fill="white"/>
</mask>
<g mask="url(#mask17_344_1134)">
<path d="M5.00266 186.133C58.7138 186.133 104.752 196.947 158.463 196.947C194.27 196.947 224.962 140.175 260.77 140.175C296.577 140.175 327.269 178.023 363.077 178.023C398.884 178.023 429.576 202.354 465.384 202.354C501.191 202.354 531.883 161.802 567.69 161.802C603.498 161.802 634.19 196.947 669.997 196.947" stroke="#FF771D" stroke-width="2"/>
</g>
<mask id="mask18_344_1134" style="mask-type:luminance" maskUnits="userSpaceOnUse" x="-20" y="-68" width="715" height="319">
<path d="M694.01 -67.672H-19.0101V250.697H694.01V-67.672Z" fill="white"/>
</mask>
<g mask="url(#mask18_344_1134)">
<path d="M5.00266 190.135C7.21298 190.135 9.00479 188.343 9.00479 186.133C9.00479 183.923 7.21298 182.131 5.00266 182.131C2.79235 182.131 1.00053 183.923 1.00053 186.133C1.00053 188.343 2.79235 190.135 5.00266 190.135Z" fill="#FF771D" stroke="white" stroke-opacity="0.9" stroke-width="2"/>
<path d="M158.463 200.949C160.673 200.949 162.465 199.157 162.465 196.947C162.465 194.737 160.673 192.945 158.463 192.945C156.253 192.945 154.461 194.737 154.461 196.947C154.461 199.157 156.253 200.949 158.463 200.949Z" fill="#FF771D" stroke="white" stroke-opacity="0.9" stroke-width="2"/>
</g>
<mask id="mask19_344_1134" style="mask-type:luminance" maskUnits="userSpaceOnUse" x="-20" y="-68" width="715" height="319">
<path d="M694.01 -67.672H-19.0101V250.697H694.01V-67.672Z" fill="white"/>
</mask>
<g mask="url(#mask19_344_1134)">
<path d="M260.77 144.177C262.98 144.177 264.772 142.385 264.772 140.175C264.772 137.964 262.98 136.172 260.77 136.172C258.56 136.172 256.768 137.964 256.768 140.175C256.768 142.385 258.56 144.177 260.77 144.177Z" fill="#FF771D" stroke="white" stroke-opacity="0.9" stroke-width="2"/>
</g>
<mask id="mask20_344_1134" style="mask-type:luminance" maskUnits="userSpaceOnUse" x="-20" y="-68" width="715" height="319">
<path d="M694.01 -67.672H-19.0101V250.697H694.01V-67.672Z" fill="white"/>
</mask>
<g mask="url(#mask20_344_1134)">
<path d="M363.077 182.025C365.287 182.025 367.079 180.233 367.079 178.023C367.079 175.812 365.287 174.021 363.077 174.021C360.866 174.021 359.075 175.812 359.075 178.023C359.075 180.233 360.866 182.025 363.077 182.025Z" fill="#FF771D" stroke="white" stroke-opacity="0.9" stroke-width="2"/>
</g>
<mask id="mask21_344_1134" style="mask-type:luminance" maskUnits="userSpaceOnUse" x="-20" y="-68" width="715" height="319">
<path d="M694.01 -67.672H-19.0101V250.697H694.01V-67.672Z" fill="white"/>
</mask>
<g mask="url(#mask21_344_1134)">
<path d="M465.384 206.356C467.594 206.356 469.386 204.564 469.386 202.354C469.386 200.144 467.594 198.352 465.384 198.352C463.173 198.352 461.381 200.144 461.381 202.354C461.381 204.564 463.173 206.356 465.384 206.356Z" fill="#FF771D" stroke="white" stroke-opacity="0.9" stroke-width="2"/>
</g>
<mask id="mask22_344_1134" style="mask-type:luminance" maskUnits="userSpaceOnUse" x="-20" y="-68" width="715" height="319">
<path d="M694.01 -67.672H-19.0101V250.697H694.01V-67.672Z" fill="white"/>
</mask>
<g mask="url(#mask22_344_1134)">
<path d="M567.691 165.804C569.901 165.804 571.693 164.013 571.693 161.802C571.693 159.592 569.901 157.8 567.691 157.8C565.48 157.8 563.688 159.592 563.688 161.802C563.688 164.013 565.48 165.804 567.691 165.804Z" fill="#FF771D" stroke="white" stroke-opacity="0.9" stroke-width="2"/>
</g>
<mask id="mask23_344_1134" style="mask-type:luminance" maskUnits="userSpaceOnUse" x="-20" y="-68" width="715" height="319">
<path d="M694.01 -67.672H-19.0101V250.697H694.01V-67.672Z" fill="white"/>
</mask>
<g mask="url(#mask23_344_1134)">
<path d="M669.997 200.949C672.208 200.949 673.999 199.157 673.999 196.947C673.999 194.737 672.208 192.945 669.997 192.945C667.787 192.945 665.995 194.737 665.995 196.947C665.995 199.157 667.787 200.949 669.997 200.949Z" fill="#FF771D" stroke="white" stroke-opacity="0.9" stroke-width="2"/>
</g>
<defs>
<linearGradient id="paint0_linear_344_1134" x1="5.00266" y1="5.00266" x2="5.00266" y2="226.685" gradientUnits="userSpaceOnUse">
<stop stop-color="#4154F1" stop-opacity="0.09"/>
<stop offset="0.9" stop-color="white" stop-opacity="0.16"/>
<stop offset="1" stop-color="white" stop-opacity="0.16"/>
</linearGradient>
<linearGradient id="paint1_linear_344_1134" x1="5.00266" y1="86.1059" x2="5.00266" y2="226.685" gradientUnits="userSpaceOnUse">
<stop stop-color="#2ECA6A" stop-opacity="0.09"/>
<stop offset="0.9" stop-color="white" stop-opacity="0.16"/>
<stop offset="1" stop-color="white" stop-opacity="0.16"/>
</linearGradient>
<linearGradient id="paint2_linear_344_1134" x1="5.00266" y1="140.175" x2="5.00266" y2="226.685" gradientUnits="userSpaceOnUse">
<stop stop-color="#FF771D" stop-opacity="0.09"/>
<stop offset="0.9" stop-color="white" stop-opacity="0.16"/>
<stop offset="1" stop-color="white" stop-opacity="0.16"/>
</linearGradient>
</defs>
</svg>
