<svg width="57" height="21" viewBox="0 0 57 21" fill="none" xmlns="http://www.w3.org/2000/svg">
<g clip-path="url(#clip0_360_4704)">
<path d="M16.0832 11.1457H7.9165V9.979H16.0832V11.1457Z" fill="#999999"/>
</g>
<g clip-path="url(#clip1_360_4704)">
<path d="M31.0002 7.06266V8.81266L33.3335 6.47933L31.0002 4.146V5.896C29.7625 5.896 28.5755 6.38766 27.7003 7.26283C26.8252 8.138 26.3335 9.32499 26.3335 10.5627C26.3335 11.4785 26.6018 12.3302 27.0568 13.0477L27.9085 12.196C27.646 11.7118 27.5002 11.146 27.5002 10.5627C27.5002 9.6344 27.8689 8.74417 28.5253 8.08779C29.1817 7.43141 30.0719 7.06266 31.0002 7.06266ZM34.9435 8.07766L34.0918 8.92933C34.3485 9.41933 34.5002 9.97933 34.5002 10.5627C34.5002 11.4909 34.1314 12.3812 33.475 13.0375C32.8187 13.6939 31.9284 14.0627 31.0002 14.0627V12.3127L28.6668 14.646L31.0002 16.9793V15.2293C32.2378 15.2293 33.4248 14.7377 34.3 13.8625C35.1752 12.9873 35.6668 11.8003 35.6668 10.5627C35.6668 9.64683 35.3985 8.79516 34.9435 8.07766Z" fill="#999999"/>
</g>
<g clip-path="url(#clip2_360_4704)">
<path d="M54.0832 7.3015L53.2607 6.479L49.9998 9.73984L46.739 6.479L45.9165 7.3015L49.1773 10.5623L45.9165 13.8232L46.739 14.6457L49.9998 11.3848L53.2607 14.6457L54.0832 13.8232L50.8223 10.5623L54.0832 7.3015Z" fill="#999999"/>
</g>
<defs>
<clipPath id="clip0_360_4704">
<rect width="14" height="14" fill="white" transform="translate(5 3.5625)"/>
</clipPath>
<clipPath id="clip1_360_4704">
<rect width="14" height="14" fill="white" transform="translate(24 3.5625)"/>
</clipPath>
<clipPath id="clip2_360_4704">
<rect width="14" height="14" fill="white" transform="translate(43 3.5625)"/>
</clipPath>
</defs>
</svg>
