<svg width="26" height="26" viewBox="0 0 26 26" fill="none" xmlns="http://www.w3.org/2000/svg">
<path d="M20.5837 4.33317H18.417V3.24984C18.417 2.96252 18.3029 2.68697 18.0997 2.4838C17.8965 2.28064 17.621 2.1665 17.3337 2.1665C17.0463 2.1665 16.7708 2.28064 16.5676 2.4838C16.3645 2.68697 16.2503 2.96252 16.2503 3.24984V4.33317H9.75033V3.24984C9.75033 2.96252 9.63619 2.68697 9.43302 2.4838C9.22986 2.28064 8.95431 2.1665 8.66699 2.1665C8.37967 2.1665 8.10412 2.28064 7.90096 2.4838C7.6978 2.68697 7.58366 2.96252 7.58366 3.24984V4.33317H5.41699C4.55504 4.33317 3.72839 4.67558 3.1189 5.28507C2.5094 5.89457 2.16699 6.72122 2.16699 7.58317V20.5832C2.16699 21.4451 2.5094 22.2718 3.1189 22.8813C3.72839 23.4908 4.55504 23.8332 5.41699 23.8332H20.5837C21.4456 23.8332 22.2723 23.4908 22.8818 22.8813C23.4913 22.2718 23.8337 21.4451 23.8337 20.5832V7.58317C23.8337 6.72122 23.4913 5.89457 22.8818 5.28507C22.2723 4.67558 21.4456 4.33317 20.5837 4.33317ZM21.667 20.5832C21.667 20.8705 21.5529 21.146 21.3497 21.3492C21.1465 21.5524 20.871 21.6665 20.5837 21.6665H5.41699C5.12967 21.6665 4.85412 21.5524 4.65096 21.3492C4.4478 21.146 4.33366 20.8705 4.33366 20.5832V12.9998H21.667V20.5832ZM21.667 10.8332H4.33366V7.58317C4.33366 7.29585 4.4478 7.0203 4.65096 6.81714C4.85412 6.61397 5.12967 6.49984 5.41699 6.49984H7.58366V7.58317C7.58366 7.87049 7.6978 8.14604 7.90096 8.3492C8.10412 8.55237 8.37967 8.6665 8.66699 8.6665C8.95431 8.6665 9.22986 8.55237 9.43302 8.3492C9.63619 8.14604 9.75033 7.87049 9.75033 7.58317V6.49984H16.2503V7.58317C16.2503 7.87049 16.3645 8.14604 16.5676 8.3492C16.7708 8.55237 17.0463 8.6665 17.3337 8.6665C17.621 8.6665 17.8965 8.55237 18.0997 8.3492C18.3029 8.14604 18.417 7.87049 18.417 7.58317V6.49984H20.5837C20.871 6.49984 21.1465 6.61397 21.3497 6.81714C21.5529 7.0203 21.667 7.29585 21.667 7.58317V10.8332Z" fill="#6C757D"/>
</svg>
