<svg width="14" height="14" viewBox="0 0 14 14" fill="none" xmlns="http://www.w3.org/2000/svg">
<path d="M6.99966 9.04163C6.45818 9.04163 5.93887 8.82652 5.55599 8.44364C5.1731 8.06075 4.958 7.54144 4.958 6.99996C4.958 6.45848 5.1731 5.93917 5.55599 5.55628C5.93887 5.1734 6.45818 4.95829 6.99966 4.95829C7.54115 4.95829 8.06045 5.1734 8.44334 5.55628C8.82623 5.93917 9.04133 6.45848 9.04133 6.99996C9.04133 7.54144 8.82623 8.06075 8.44334 8.44364C8.06045 8.82652 7.54115 9.04163 6.99966 9.04163ZM11.3338 7.56579C11.3572 7.37913 11.3747 7.19246 11.3747 6.99996C11.3747 6.80746 11.3572 6.61496 11.3338 6.41663L12.5647 5.46579C12.6755 5.37829 12.7047 5.22079 12.6347 5.09246L11.468 3.07413C11.398 2.94579 11.2405 2.89329 11.1122 2.94579L9.65966 3.52913C9.35633 3.30163 9.04133 3.10329 8.67383 2.95746L8.458 1.41163C8.43466 1.27163 8.31216 1.16663 8.16633 1.16663H5.833C5.68716 1.16663 5.56466 1.27163 5.54133 1.41163L5.3255 2.95746C4.958 3.10329 4.643 3.30163 4.33966 3.52913L2.88716 2.94579C2.75883 2.89329 2.60133 2.94579 2.53133 3.07413L1.36466 5.09246C1.28883 5.22079 1.32383 5.37829 1.43466 5.46579L2.6655 6.41663C2.64216 6.61496 2.62466 6.80746 2.62466 6.99996C2.62466 7.19246 2.64216 7.37913 2.6655 7.56579L1.43466 8.53413C1.32383 8.62163 1.28883 8.77913 1.36466 8.90746L2.53133 10.9258C2.60133 11.0541 2.75883 11.1008 2.88716 11.0541L4.33966 10.465C4.643 10.6983 4.958 10.8966 5.3255 11.0425L5.54133 12.5883C5.56466 12.7283 5.68716 12.8333 5.833 12.8333H8.16633C8.31216 12.8333 8.43466 12.7283 8.458 12.5883L8.67383 11.0425C9.04133 10.8908 9.35633 10.6983 9.65966 10.465L11.1122 11.0541C11.2405 11.1008 11.398 11.0541 11.468 10.9258L12.6347 8.90746C12.7047 8.77913 12.6755 8.62163 12.5647 8.53413L11.3338 7.56579Z" fill="#DDDDDD"/>
</svg>
