<svg width="14" height="14" viewBox="0 0 14 14" fill="none" xmlns="http://www.w3.org/2000/svg">
<path d="M7.00015 9.04163C6.45867 9.04163 5.93936 8.82652 5.55647 8.44364C5.17359 8.06075 4.95848 7.54144 4.95848 6.99996C4.95848 6.45848 5.17359 5.93917 5.55647 5.55628C5.93936 5.1734 6.45867 4.95829 7.00015 4.95829C7.54163 4.95829 8.06094 5.1734 8.44383 5.55628C8.82671 5.93917 9.04182 6.45848 9.04182 6.99996C9.04182 7.54144 8.82671 8.06075 8.44383 8.44364C8.06094 8.82652 7.54163 9.04163 7.00015 9.04163ZM11.3343 7.56579C11.3577 7.37913 11.3752 7.19246 11.3752 6.99996C11.3752 6.80746 11.3577 6.61496 11.3343 6.41663L12.5652 5.46579C12.676 5.37829 12.7052 5.22079 12.6351 5.09246L11.4685 3.07413C11.3985 2.94579 11.241 2.89329 11.1126 2.94579L9.66015 3.52913C9.35682 3.30163 9.04182 3.10329 8.67432 2.95746L8.45848 1.41163C8.43515 1.27163 8.31265 1.16663 8.16682 1.16663H5.83348C5.68765 1.16663 5.56515 1.27163 5.54182 1.41163L5.32598 2.95746C4.95848 3.10329 4.64348 3.30163 4.34015 3.52913L2.88765 2.94579C2.75932 2.89329 2.60182 2.94579 2.53182 3.07413L1.36515 5.09246C1.28932 5.22079 1.32432 5.37829 1.43515 5.46579L2.66598 6.41663C2.64265 6.61496 2.62515 6.80746 2.62515 6.99996C2.62515 7.19246 2.64265 7.37913 2.66598 7.56579L1.43515 8.53413C1.32432 8.62163 1.28932 8.77913 1.36515 8.90746L2.53182 10.9258C2.60182 11.0541 2.75932 11.1008 2.88765 11.0541L4.34015 10.465C4.64348 10.6983 4.95848 10.8966 5.32598 11.0425L5.54182 12.5883C5.56515 12.7283 5.68765 12.8333 5.83348 12.8333H8.16682C8.31265 12.8333 8.43515 12.7283 8.45848 12.5883L8.67432 11.0425C9.04182 10.8908 9.35682 10.6983 9.66015 10.465L11.1126 11.0541C11.241 11.1008 11.3985 11.0541 11.4685 10.9258L12.6351 8.90746C12.7052 8.77913 12.676 8.62163 12.5652 8.53413L11.3343 7.56579Z" fill="white"/>
</svg>
